<svg width="96" height="96" viewBox="0 0 96 96" fill="none" xmlns="http://www.w3.org/2000/svg">
<path d="M48 8C26 8 8 26 8 48C8 70 26 88 48 88C70 88 88 70 88 48C88 26 70 8 48 8ZM48 80C30.4 80 16 65.6 16 48C16 30.4 30.4 16 48 16C65.6 16 80 30.4 80 48C80 65.6 65.6 80 48 80Z" fill="#2579B9"/>
<path d="M50.8 37.2C49.2 35.6 46.8 35.6 45.2 37.2L33.2 49.2C31.6 50.8 31.6 53.2 33.2 54.8C34.8 56.4 37.2 56.4 38.8 54.8L48 45.6L57.2 54.8C58 55.6 59.2 56 60 56C60.8 56 62 55.6 62.8 54.8C64.4 53.2 64.4 50.8 62.8 49.2L50.8 37.2Z" fill="#2579B9"/>
</svg>
